<svg width="14" height="14" viewBox="0 0 14 14" fill="none" xmlns="http://www.w3.org/2000/svg">
<path d="M0.600506 12.1421L0.211617 12.1421L0.600506 12.1421L0.600506 9.1066L8.58579 1.12132C9.36684 0.340272 10.6332 0.340272 11.4142 1.12132L12.1213 1.82843C12.9024 2.60948 12.9024 3.87581 12.1213 4.65685L4.13604 12.6421H1.10051C0.824363 12.6421 0.600505 12.4183 0.600506 12.1421ZM9.64645 5.01041L10 5.36396L10.3536 5.01041L11.4142 3.94975C11.8047 3.55922 11.8047 2.92606 11.4142 2.53553L10.7071 1.82843C10.3166 1.4379 9.68342 1.4379 9.29289 1.82843L8.23223 2.88909L7.87868 3.24264L8.23223 3.59619L9.64645 5.01041ZM8.93934 6.42462L9.29289 6.07107L8.93934 5.71751L7.52513 4.3033L7.17157 3.94975L6.81802 4.3033L1.74695 9.37437L1.60051 9.52081L1.60051 9.72792L1.60051 11.1421L1.60051 11.6421L2.10051 11.6421L3.51472 11.6421L3.72183 11.6421L3.86827 11.4957L8.93934 6.42462Z" stroke="#A2A2A7" stroke-linecap="round"/>
</svg>
