<svg width="12" height="12" viewBox="0 0 12 12" fill="none" xmlns="http://www.w3.org/2000/svg">
<mask id="path-1-inside-1_505_846" fill="white">
<path d="M0.292893 0.292893C0.683417 -0.0976311 1.31658 -0.0976311 1.70711 0.292893L6 4.58579L10.2929 0.292893C10.6834 -0.0976311 11.3166 -0.0976311 11.7071 0.292893C12.0976 0.683417 12.0976 1.31658 11.7071 1.70711L7.41421 6L11.7071 10.2929C12.0976 10.6834 12.0976 11.3166 11.7071 11.7071C11.3166 12.0976 10.6834 12.0976 10.2929 11.7071L6 7.41421L1.70711 11.7071C1.31658 12.0976 0.683417 12.0976 0.292893 11.7071C-0.0976311 11.3166 -0.0976311 10.6834 0.292893 10.2929L4.58579 6L0.292893 1.70711C-0.0976311 1.31658 -0.0976311 0.683417 0.292893 0.292893Z"/>
</mask>
<path d="M0.292893 0.292893C0.683417 -0.0976311 1.31658 -0.0976311 1.70711 0.292893L6 4.58579L10.2929 0.292893C10.6834 -0.0976311 11.3166 -0.0976311 11.7071 0.292893C12.0976 0.683417 12.0976 1.31658 11.7071 1.70711L7.41421 6L11.7071 10.2929C12.0976 10.6834 12.0976 11.3166 11.7071 11.7071C11.3166 12.0976 10.6834 12.0976 10.2929 11.7071L6 7.41421L1.70711 11.7071C1.31658 12.0976 0.683417 12.0976 0.292893 11.7071C-0.0976311 11.3166 -0.0976311 10.6834 0.292893 10.2929L4.58579 6L0.292893 1.70711C-0.0976311 1.31658 -0.0976311 0.683417 0.292893 0.292893Z" fill="#1E1E2D"/>
<path d="M0.292893 0.292893L1.70711 1.70711L1.70711 1.70711L0.292893 0.292893ZM1.70711 0.292893L0.292893 1.70711H0.292893L1.70711 0.292893ZM6 4.58579L4.58579 6L6 7.41421L7.41421 6L6 4.58579ZM10.2929 0.292893L11.7071 1.70711L11.7071 1.70711L10.2929 0.292893ZM11.7071 0.292893L10.2929 1.70711L10.2929 1.70711L11.7071 0.292893ZM11.7071 1.70711L10.2929 0.292892L10.2929 0.292893L11.7071 1.70711ZM7.41421 6L6 4.58579L4.58579 6L6 7.41421L7.41421 6ZM11.7071 10.2929L10.2929 11.7071L10.2929 11.7071L11.7071 10.2929ZM11.7071 11.7071L10.2929 10.2929L10.2929 10.2929L11.7071 11.7071ZM10.2929 11.7071L11.7071 10.2929L11.7071 10.2929L10.2929 11.7071ZM6 7.41421L7.41421 6L6 4.58579L4.58579 6L6 7.41421ZM1.70711 11.7071L0.292893 10.2929L0.292892 10.2929L1.70711 11.7071ZM0.292893 11.7071L1.70711 10.2929L1.70711 10.2929L0.292893 11.7071ZM0.292893 10.2929L1.70711 11.7071L1.70711 11.7071L0.292893 10.2929ZM4.58579 6L6 7.41421L7.41421 6L6 4.58579L4.58579 6ZM0.292893 1.70711L1.70711 0.292893V0.292893L0.292893 1.70711ZM1.70711 1.70711C1.31658 2.09763 0.683417 2.09763 0.292893 1.70711L3.12132 -1.12132C1.94975 -2.29289 0.0502524 -2.29289 -1.12132 -1.12132L1.70711 1.70711ZM0.292893 1.70711L4.58579 6L7.41421 3.17157L3.12132 -1.12132L0.292893 1.70711ZM7.41421 6L11.7071 1.70711L8.87868 -1.12132L4.58579 3.17157L7.41421 6ZM11.7071 1.70711C11.3166 2.09763 10.6834 2.09763 10.2929 1.70711L13.1213 -1.12132C11.9497 -2.29289 10.0503 -2.29289 8.87868 -1.12132L11.7071 1.70711ZM10.2929 1.70711C9.90237 1.31658 9.90237 0.683417 10.2929 0.292892L13.1213 3.12132C14.2929 1.94975 14.2929 0.0502517 13.1213 -1.12132L10.2929 1.70711ZM10.2929 0.292893L6 4.58579L8.82843 7.41421L13.1213 3.12132L10.2929 0.292893ZM6 7.41421L10.2929 11.7071L13.1213 8.87868L8.82843 4.58579L6 7.41421ZM10.2929 11.7071C9.90237 11.3166 9.90237 10.6834 10.2929 10.2929L13.1213 13.1213C14.2929 11.9497 14.2929 10.0503 13.1213 8.87868L10.2929 11.7071ZM10.2929 10.2929C10.6834 9.90237 11.3166 9.90237 11.7071 10.2929L8.87868 13.1213C10.0503 14.2929 11.9497 14.2929 13.1213 13.1213L10.2929 10.2929ZM11.7071 10.2929L7.41421 6L4.58579 8.82843L8.87868 13.1213L11.7071 10.2929ZM4.58579 6L0.292893 10.2929L3.12132 13.1213L7.41421 8.82843L4.58579 6ZM0.292892 10.2929C0.683417 9.90237 1.31658 9.90237 1.70711 10.2929L-1.12132 13.1213C0.0502517 14.2929 1.94975 14.2929 3.12132 13.1213L0.292892 10.2929ZM1.70711 10.2929C2.09763 10.6834 2.09763 11.3166 1.70711 11.7071L-1.12132 8.87868C-2.29289 10.0503 -2.29289 11.9497 -1.12132 13.1213L1.70711 10.2929ZM1.70711 11.7071L6 7.41421L3.17157 4.58579L-1.12132 8.87868L1.70711 11.7071ZM6 4.58579L1.70711 0.292893L-1.12132 3.12132L3.17157 7.41421L6 4.58579ZM1.70711 0.292893C2.09763 0.683417 2.09763 1.31658 1.70711 1.70711L-1.12132 -1.12132C-2.29289 0.0502524 -2.29289 1.94975 -1.12132 3.12132L1.70711 0.292893Z" fill="#707070" mask="url(#path-1-inside-1_505_846)"/>
</svg>
