<svg width="36" height="36" viewBox="0 0 36 36" fill="none" xmlns="http://www.w3.org/2000/svg">
<path fill-rule="evenodd" clip-rule="evenodd" d="M16.7713 2.26551C17.298 1.85591 18.0354 1.85591 18.562 2.26551L31.687 12.4738C32.0422 12.7501 32.25 13.175 32.25 13.625V29.6666C32.25 30.827 31.7891 31.9398 30.9686 32.7602C30.1481 33.5807 29.0353 34.0416 27.875 34.0416H7.45834C6.29801 34.0416 5.18521 33.5807 4.36474 32.7602C3.54427 31.9398 3.08334 30.827 3.08334 29.6666V13.625C3.08334 13.175 3.29111 12.7501 3.64634 12.4738L16.7713 2.26551ZM6 14.3382V29.6666C6 30.0534 6.15365 30.4244 6.42714 30.6978C6.70063 30.9713 7.07156 31.125 7.45834 31.125H27.875C28.2618 31.125 28.6327 30.9713 28.9062 30.6978C29.1797 30.4244 29.3333 30.0534 29.3333 29.6666V14.3382L17.6667 5.26415L6 14.3382Z" fill="#707070"/>
<path d="M13 26L23 26" stroke="#707070" stroke-width="2" stroke-linecap="round"/>
</svg>
