<svg width="22" height="23" viewBox="0 0 22 23" fill="none" xmlns="http://www.w3.org/2000/svg">
<path d="M7.33331 9.94447V7.19447C7.33331 5.16955 8.97506 3.5278 11 3.5278C13.0249 3.5278 14.6666 5.16955 14.6666 7.19447V9.94447" stroke="#A2A2A7" stroke-width="1.3" stroke-linecap="round" stroke-linejoin="round"/>
<path d="M15.5833 20.0278H6.41665C5.40373 20.0278 4.58331 19.2074 4.58331 18.1945V11.7778C4.58331 10.7649 5.40373 9.94446 6.41665 9.94446H15.5833C16.5962 9.94446 17.4166 10.7649 17.4166 11.7778V18.1945C17.4166 19.2074 16.5962 20.0278 15.5833 20.0278Z" stroke="#A2A2A7" stroke-width="1.3" stroke-linecap="round" stroke-linejoin="round"/>
<path d="M8.25001 15.0237C8.24726 15.0237 8.24542 15.0255 8.24542 15.0283C8.24542 15.031 8.24726 15.0329 8.25001 15.0329C8.25276 15.0329 8.25459 15.031 8.25459 15.0283C8.25459 15.0255 8.25276 15.0237 8.25001 15.0237Z" stroke="#A2A2A7" stroke-width="1.5" stroke-linecap="round" stroke-linejoin="round"/>
<path d="M11.0046 15.0237C11.0018 15.0237 11 15.0255 11 15.0283C11 15.031 11.0046 15.0329 11.0046 15.0329C11.0073 15.0329 11.0092 15.031 11.0092 15.0283C11.0092 15.0255 11.0073 15.0237 11.0046 15.0237Z" stroke="#A2A2A7" stroke-width="1.5" stroke-linecap="round" stroke-linejoin="round"/>
<path d="M13.75 15.0237C13.7473 15.0237 13.7454 15.0255 13.7454 15.0283C13.7454 15.031 13.7473 15.0329 13.75 15.0329C13.7528 15.0329 13.7546 15.031 13.7546 15.0283C13.7546 15.0255 13.7528 15.0237 13.75 15.0237Z" stroke="#A2A2A7" stroke-width="1.5" stroke-linecap="round" stroke-linejoin="round"/>
</svg>
