<svg width="18" height="18" viewBox="0 0 18 18" fill="none" xmlns="http://www.w3.org/2000/svg">
<path d="M14.8337 3.16637C18.0555 6.3882 18.0555 11.6118 14.8337 14.8336C11.6118 18.0554 6.38823 18.0554 3.16642 14.8336C-0.0554032 11.6118 -0.0554032 6.38818 3.16642 3.16637C6.38825 -0.0554566 11.6119 -0.0554566 14.8337 3.16637Z" stroke="#A2A2A7" stroke-width="1.3" stroke-linecap="round" stroke-linejoin="round"/>
<path d="M10.8233 5.63025C11.8303 6.63724 11.8303 8.26992 10.8233 9.27691C9.81634 10.2839 8.18367 10.2839 7.17667 9.27691C6.16968 8.26992 6.16968 6.63724 7.17667 5.63025C8.18367 4.62325 9.81634 4.62325 10.8233 5.63025Z" stroke="#A2A2A7" stroke-width="1.3" stroke-linecap="round" stroke-linejoin="round"/>
<path d="M14.2314 15.3782C12.916 13.9931 11.0607 13.125 9 13.125C6.93933 13.125 5.084 13.9931 3.76858 15.3791" stroke="#A2A2A7" stroke-width="1.3" stroke-linecap="round" stroke-linejoin="round"/>
</svg>
