<svg width="30" height="34" viewBox="0 0 30 34" fill="none" xmlns="http://www.w3.org/2000/svg">
<path fill-rule="evenodd" clip-rule="evenodd" d="M17.5601 1.5419C16.1796 0.755809 14.487 0.755808 13.1065 1.5419L8.07355 4.40791L8.06579 4.41232L8.05809 4.41683L3.05956 7.34252C1.68856 8.14498 0.842238 9.61085 0.832788 11.1994L0.798332 16.9911L0.798279 17L0.798332 17.0089L0.832788 22.8006C0.842238 24.3892 1.68856 25.8551 3.05956 26.6575L8.05809 29.5832L8.06579 29.5877L8.07355 29.5921L13.1065 32.4582C14.487 33.2442 16.1796 33.2442 17.5601 32.4582L22.5931 29.5921L22.6008 29.5877L22.6085 29.5832L27.607 26.6575C28.978 25.8551 29.8244 24.3892 29.8338 22.8006L29.8683 17.0089L29.8683 17L29.8683 16.9911L29.8338 11.1994C29.8244 9.61086 28.978 8.14498 27.607 7.34252L22.6085 4.41683L22.6008 4.41232L22.5931 4.40791L17.5601 1.5419ZM14.591 4.14885C15.0512 3.88682 15.6154 3.88682 16.0756 4.14885L21.1007 7.01042L26.0916 9.93163C26.5486 10.1991 26.8307 10.6877 26.8339 11.2173L26.8683 17L26.8339 22.7828C26.8307 23.3123 26.5486 23.8009 26.0916 24.0684L21.1007 26.9897L16.0756 29.8512C15.6154 30.1132 15.0512 30.1132 14.591 29.8512L9.56589 26.9896L4.57499 24.0684C4.11799 23.8009 3.83588 23.3123 3.83273 22.7828L3.79833 17L3.83273 11.2173C3.83588 10.6877 4.11799 10.1991 4.57499 9.93163L9.56583 7.01044L14.591 4.14885ZM13 17C13 15.7114 14.0446 14.6667 15.3333 14.6667C16.622 14.6667 17.6666 15.7114 17.6666 17C17.6666 18.2887 16.622 19.3334 15.3333 19.3334C14.0446 19.3334 13 18.2887 13 17ZM15.3333 12.6667C12.9401 12.6667 11 14.6068 11 17C11 19.3933 12.9401 21.3334 15.3333 21.3334C17.7265 21.3334 19.6666 19.3933 19.6666 17C19.6666 14.6068 17.7265 12.6667 15.3333 12.6667Z" fill="#707070"/>
</svg>
