<svg width="30" height="30" viewBox="0 0 30 30" fill="none" xmlns="http://www.w3.org/2000/svg">
<path fill-rule="evenodd" clip-rule="evenodd" d="M4.5 0C2.01472 0 0 2.01472 0 4.5V9C0 11.4853 2.01472 13.5 4.5 13.5H9C11.4853 13.5 13.5 11.4853 13.5 9V4.5C13.5 2.01472 11.4853 0 9 0H4.5ZM3 4.5C3 3.67157 3.67157 3 4.5 3H9C9.82843 3 10.5 3.67157 10.5 4.5V9C10.5 9.82843 9.82843 10.5 9 10.5H4.5C3.67157 10.5 3 9.82843 3 9V4.5Z" fill="#707070"/>
<path fill-rule="evenodd" clip-rule="evenodd" d="M21 0C18.5147 0 16.5 2.01472 16.5 4.5V9C16.5 11.4853 18.5147 13.5 21 13.5H25.5C27.9853 13.5 30 11.4853 30 9V4.5C30 2.01472 27.9853 0 25.5 0H21ZM19.5 4.5C19.5 3.67157 20.1716 3 21 3H25.5C26.3284 3 27 3.67157 27 4.5V9C27 9.82843 26.3284 10.5 25.5 10.5H21C20.1716 10.5 19.5 9.82843 19.5 9V4.5Z" fill="#707070"/>
<path fill-rule="evenodd" clip-rule="evenodd" d="M0 21C0 18.5147 2.01472 16.5 4.5 16.5H9C11.4853 16.5 13.5 18.5147 13.5 21V25.5C13.5 27.9853 11.4853 30 9 30H4.5C2.01472 30 0 27.9853 0 25.5V21ZM4.5 19.5C3.67157 19.5 3 20.1716 3 21V25.5C3 26.3284 3.67157 27 4.5 27H9C9.82843 27 10.5 26.3284 10.5 25.5V21C10.5 20.1716 9.82843 19.5 9 19.5H4.5Z" fill="#707070"/>
<path fill-rule="evenodd" clip-rule="evenodd" d="M21 16.5C18.5147 16.5 16.5 18.5147 16.5 21V25.5C16.5 27.9853 18.5147 30 21 30H25.5C27.9853 30 30 27.9853 30 25.5V21C30 18.5147 27.9853 16.5 25.5 16.5H21ZM19.5 21C19.5 20.1716 20.1716 19.5 21 19.5H25.5C26.3284 19.5 27 20.1716 27 21V25.5C27 26.3284 26.3284 27 25.5 27H21C20.1716 27 19.5 26.3284 19.5 25.5V21Z" fill="#707070"/>
</svg>
